<mxfile host="app.diagrams.net" modified="2024-03-02T05:04:46.572Z" agent="Mozilla/5.0 (Macintosh; Intel Mac OS X 10_15_7) AppleWebKit/537.36 (KHTML, like Gecko) Chrome/121.0.0.0 Safari/537.36" etag="dz2zRvZ4ea3vNRQS6qPU" version="23.1.1" type="device">
  <diagram name="Page-1" id="HQPZuYFLxeG9Ihv8y6RC">
    <mxGraphModel dx="776" dy="454" grid="1" gridSize="10" guides="1" tooltips="1" connect="1" arrows="1" fold="1" page="1" pageScale="1" pageWidth="827" pageHeight="1169" math="0" shadow="0">
      <root>
        <mxCell id="0" />
        <mxCell id="1" parent="0" />
      </root>
    </mxGraphModel>
  </diagram>
</mxfile>
